mastitorrents.com
  
http://mastitorrents.com/forums/index.php
  
http://thepiratebay.se/user/HDvideos/0/7

Saheb Biwi Aur Gangster Returns (2013) Hindi 1CD CAMRip XviD MP3

General
Format : AVI
Format/Info : Audio Video Interleave
File size : 694 MiB
Duration : 1h 48mn
Overall bit rate : 891 Kbps
Video #0
ID : 0
Format : MPEG-4 Visual
Format profile : Advanced Simple@L5
Format settings, BVOP : 2
Format settings, QPel : Yes
Format settings, GMC : No warppoints
Format settings, Matrix : Default (H.263)
Codec ID : XVID
Codec ID/Hint : XviD
Duration : 1h 48mn
Bit rate : 804 Kbps
Width : 624 pixels
Height : 304 pixels
Frame rate : 29.970 fps
Color space : YUV
Chroma subsampling : 4:2:0
Bit depth : 8 bits
Scan type : Progressive
Compression mode : Lossy
Bits/(Pixel*Frame) : 0.141
Stream size : 626 MiB (90%)

Audio #1
ID : 1
Format : MPEG Audio
Format version : Version 1
Format profile : Layer 3
Mode : Joint stereo
Mode extension : MS Stereo
Codec ID : 55
Codec ID/Hint : MP3
Duration : 1h 48mn
Bit rate mode : Constant
Bit rate : 80.0 Kbps
Channel(s) : 2 channels
Sampling rate : 32.0 KHz
Compression mode : Lossy
Stream size : 62.3 MiB (9%)

Screens: 
http://imageshack.us/a/img805/6149/18869455.png 
http://imageshack.us/a/img27/5903/47117471.png 
http://imageshack.us/a/img831/107/30421693.png 
http://imageshack.us/a/img842/9954/69134842.png 
http://imageshack.us/a/img829/5230/62892813.png 
http://imageshack.us/a/img685/9112/59206803.png 
http://imageshack.us/a/img715/9249/46113031.png 
http://imageshack.us/a/img843/4460/99430025.png 
http://imageshack.us/a/img42/3382/83260618.png